<?xml version="1.0" encoding="UTF-8" standalone="no"?>
<!-- Created with Inkscape (http://www.inkscape.org/) -->

<svg
   width="480"
   height="480"
   viewBox="0 0 127 127"
   version="1.1"
   id="svg5"
   xml:space="preserve"
   inkscape:version="1.2.1 (9c6d41e410, 2022-07-14)"
   sodipodi:docname="cargomod.svg"
   inkscape:export-filename="20 Parsecs\images\cargo-mod.png"
   inkscape:export-xdpi="2.4000001"
   inkscape:export-ydpi="2.4000001"
   xmlns:inkscape="http://www.inkscape.org/namespaces/inkscape"
   xmlns:sodipodi="http://sodipodi.sourceforge.net/DTD/sodipodi-0.dtd"
   xmlns="http://www.w3.org/2000/svg"
   xmlns:svg="http://www.w3.org/2000/svg"><sodipodi:namedview
     id="namedview7"
     pagecolor="#353535"
     bordercolor="#000000"
     borderopacity="0.25"
     inkscape:showpageshadow="2"
     inkscape:pageopacity="0"
     inkscape:pagecheckerboard="0"
     inkscape:deskcolor="#d1d1d1"
     inkscape:document-units="mm"
     showgrid="true"
     inkscape:zoom="0.74564394"
     inkscape:cx="17.434595"
     inkscape:cy="348.6919"
     inkscape:window-width="1920"
     inkscape:window-height="1017"
     inkscape:window-x="-8"
     inkscape:window-y="-8"
     inkscape:window-maximized="1"
     inkscape:current-layer="layer1"><inkscape:grid
       type="xygrid"
       id="grid419"
       spacingx="5.2916667"
       spacingy="5.2916667"
       empspacing="2"
       originx="0"
       originy="0" /></sodipodi:namedview><defs
     id="defs2" /><g
     inkscape:label="Réteg 1"
     inkscape:groupmode="layer"
     id="layer1"><path
       id="rect4396"
       style="opacity:1;fill:#ffffff;fill-rule:evenodd;stroke:none;stroke-width:13.2291;stroke-linecap:round;stroke-linejoin:round;stroke-dasharray:none;paint-order:markers fill stroke;stop-color:#000000"
       d="M 31.75 10.583333 L 31.75 63.5 L 33.56436 63.5 L 43.791642 53.272717 C 42.842673 49.721761 42.302264 46.066546 42.301294 42.36899 A 10.584391 10.584391 0 0 1 42.301294 42.366406 C 42.301294 29.74846 47.919676 18.361803 56.772762 10.583333 L 31.75 10.583333 z M 0 74.083333 L 0 97.06436 L 22.981026 74.083333 L 0 74.083333 z M 112.56884 74.083333 C 105.09607 80.678881 95.305529 84.698706 84.633594 84.698706 A 10.584391 10.584391 0 0 1 84.631527 84.698706 C 80.93397 84.697746 77.278239 84.157307 73.727283 83.208358 L 63.5 93.43564 L 63.5 127 L 116.41667 127 L 116.41667 74.083333 L 112.56884 74.083333 z M 52.916667 104.01897 L 29.93564 127 L 52.916667 127 L 52.916667 104.01897 z " /><g
       id="path6472"
       style="stroke:none;fill:#ffffff"><path
         style="color:#000000;fill:#ffffff;fill-rule:evenodd;stroke-width:21.1667;stroke-linecap:round;stroke-linejoin:round;-inkscape-stroke:none;paint-order:markers fill stroke;stroke:none"
         d="M 63.5,63.499999 10.583333,116.41667"
         id="path816" /><path
         id="path818"
         style="color:#000000;fill:#ffffff;fill-rule:evenodd;stroke-linecap:round;stroke-linejoin:round;paint-order:stroke fill markers;stroke:none;stroke-width:21.16666667;stroke-dasharray:none"
         d="M 84.666667 10.583333 A 31.749999 31.75 0 0 0 52.916667 42.333333 A 31.749999 31.75 0 0 0 56.018803 56.013118 A 10.58335 10.58335 0 0 0 56.015702 56.015702 L 3.0995524 108.9334 A 10.58335 10.58335 0 0 0 3.0995524 123.90045 A 10.58335 10.58335 0 0 0 18.066597 123.90045 L 70.984298 70.984298 A 10.58335 10.58335 0 0 0 70.986882 70.981197 A 31.749999 31.75 0 0 0 84.666667 74.083333 A 31.749999 31.75 0 0 0 116.41667 42.333333 A 31.749999 31.75 0 0 0 114.22145 30.739209 L 90.246688 54.713973 L 72.286027 36.753312 L 96.260791 12.778548 A 31.749999 31.75 0 0 0 84.666667 10.583333 z " /></g></g></svg>
