<?xml version="1.0" encoding="UTF-8" standalone="no"?>
<!-- Created with Inkscape (http://www.inkscape.org/) -->

<svg
   width="480"
   height="480"
   viewBox="0 0 127 127"
   version="1.1"
   id="svg5"
   xml:space="preserve"
   inkscape:version="1.2.1 (9c6d41e410, 2022-07-14)"
   sodipodi:docname="encounter.svg"
   inkscape:export-filename="20 Parsecs\images\encounter.png"
   inkscape:export-xdpi="2.4000001"
   inkscape:export-ydpi="2.4000001"
   xmlns:inkscape="http://www.inkscape.org/namespaces/inkscape"
   xmlns:sodipodi="http://sodipodi.sourceforge.net/DTD/sodipodi-0.dtd"
   xmlns="http://www.w3.org/2000/svg"
   xmlns:svg="http://www.w3.org/2000/svg"><sodipodi:namedview
     id="namedview7"
     pagecolor="#353535"
     bordercolor="#000000"
     borderopacity="0.25"
     inkscape:showpageshadow="2"
     inkscape:pageopacity="0"
     inkscape:pagecheckerboard="0"
     inkscape:deskcolor="#d1d1d1"
     inkscape:document-units="mm"
     showgrid="true"
     inkscape:zoom="1.0544998"
     inkscape:cx="163.11051"
     inkscape:cy="373.63687"
     inkscape:window-width="1920"
     inkscape:window-height="1017"
     inkscape:window-x="-8"
     inkscape:window-y="-8"
     inkscape:window-maximized="1"
     inkscape:current-layer="layer1"><inkscape:grid
       type="xygrid"
       id="grid419"
       spacingx="5.2916667"
       spacingy="5.2916667"
       empspacing="2"
       originx="0"
       originy="0" /></sodipodi:namedview><defs
     id="defs2" /><g
     inkscape:label="Réteg 1"
     inkscape:groupmode="layer"
     id="layer1"><path
       id="path4377"
       style="color:#000000;fill:#ffffff;fill-rule:evenodd;stroke-width:10.5833;stroke-linecap:round;stroke-linejoin:round;paint-order:markers fill stroke"
       d="M 63.5 10.58385 C 61.496168 10.583905 59.664216 11.715721 58.767472 13.507703 L 11.142472 108.7577 C 9.383763 112.27599 11.941636 116.41528 15.875 116.41615 L 111.125 116.41615 C 115.05837 116.41528 117.61624 112.27599 115.85753 108.7577 L 68.232528 13.507703 C 67.335784 11.715721 65.503832 10.583905 63.5 10.58385 z M 63.5 31.75 A 10.583333 10.583333 0 0 1 74.083333 42.333333 L 74.083333 63.5 A 10.583333 10.583333 0 0 1 63.5 74.083333 A 10.583333 10.583333 0 0 1 52.916667 63.5 L 52.916667 42.333333 A 10.583333 10.583333 0 0 1 63.5 31.75 z M 63.5 84.666667 A 10.583333 10.583333 0 0 1 74.083333 95.25 A 10.583333 10.583333 0 0 1 63.5 105.83333 A 10.583333 10.583333 0 0 1 52.916667 95.25 A 10.583333 10.583333 0 0 1 63.5 84.666667 z " /></g></svg>
