<?xml version="1.0" encoding="UTF-8" standalone="no"?>
<!-- Created with Inkscape (http://www.inkscape.org/) -->

<svg
   width="480"
   height="480"
   viewBox="0 0 127 127"
   version="1.1"
   id="svg5"
   xml:space="preserve"
   inkscape:version="1.2.1 (9c6d41e410, 2022-07-14)"
   sodipodi:docname="fame.svg"
   inkscape:export-filename="20 Parsecs\images\reward.png"
   inkscape:export-xdpi="2.4000001"
   inkscape:export-ydpi="2.4000001"
   xmlns:inkscape="http://www.inkscape.org/namespaces/inkscape"
   xmlns:sodipodi="http://sodipodi.sourceforge.net/DTD/sodipodi-0.dtd"
   xmlns="http://www.w3.org/2000/svg"
   xmlns:svg="http://www.w3.org/2000/svg"><sodipodi:namedview
     id="namedview7"
     pagecolor="#353535"
     bordercolor="#000000"
     borderopacity="0.25"
     inkscape:showpageshadow="2"
     inkscape:pageopacity="0"
     inkscape:pagecheckerboard="0"
     inkscape:deskcolor="#d1d1d1"
     inkscape:document-units="mm"
     showgrid="true"
     inkscape:zoom="1.0544998"
     inkscape:cx="262.68379"
     inkscape:cy="320.53112"
     inkscape:window-width="1920"
     inkscape:window-height="1017"
     inkscape:window-x="-8"
     inkscape:window-y="-8"
     inkscape:window-maximized="1"
     inkscape:current-layer="layer1"><inkscape:grid
       type="xygrid"
       id="grid419"
       spacingx="5.2916667"
       spacingy="5.2916667"
       empspacing="2"
       originx="0"
       originy="0" /></sodipodi:namedview><defs
     id="defs2" /><g
     inkscape:label="Réteg 1"
     inkscape:groupmode="layer"
     id="layer1"><path
       style="opacity:1;fill:#ffffff;fill-rule:evenodd;stroke-width:7.05905;stroke-linecap:round;stroke-linejoin:round;paint-order:markers stroke fill;stop-color:#000000"
       d="m 63.529595,106.01338 -5.384245,2.82947 5.352879,10.84294 5.348053,-10.86913 z"
       id="path5975" /><path
       style="opacity:1;fill:#ffffff;fill-rule:evenodd;stroke-width:7.06884;stroke-linecap:round;stroke-linejoin:round;paint-order:markers stroke fill;stop-color:#000000"
       d="m 18.729302,71.499532 -8.670372,8.453612 12.006671,1.729932 1.024774,-5.932232 z"
       id="path5973" /><path
       style="opacity:1;fill:#ffffff;fill-rule:evenodd;stroke-width:6.67633;stroke-linecap:round;stroke-linejoin:round;paint-order:markers stroke fill;stop-color:#000000"
       d="m 108.37298,71.783267 -4.07523,3.962766 0.97146,5.67064 11.3178,-1.646262 z"
       id="path5971" /><path
       style="opacity:1;fill:#ffffff;fill-rule:evenodd;stroke-width:12.2408;stroke-linecap:round;stroke-linejoin:round;paint-order:markers stroke fill;stop-color:#000000"
       d="M 56.925951,29.43674 50.96693,41.506596 a 6.1209912,6.1209912 0 0 1 -4.614804,3.347691 l -13.166628,1.897085 1.251574,7.244664 -5.363716,5.229832 9.636041,9.395171 a 6.1209912,6.1209912 0 0 1 1.757822,5.424083 l -2.263471,13.109847 7.27634,1.048356 3.316013,6.717496 11.913858,-6.262051 a 6.1209912,6.1209912 0 0 1 5.702012,0.0042 l 11.768618,6.204673 3.245486,-6.595566 7.41381,-1.078242 -2.273034,-13.266442 A 6.1209912,6.1209912 0 0 1 88.331247,68.5057 l 9.537421,-9.274436 -5.269878,-5.124638 1.265321,-7.384524 -13.319637,-1.937728 a 6.1209912,6.1209912 0 0 1 -4.610621,-3.354863 l -5.872355,-11.935973 -6.503521,3.428977 z"
       id="path5969" /><path
       style="opacity:1;fill:#ffffff;fill-rule:evenodd;stroke-width:8.27378;stroke-linecap:round;stroke-linejoin:round;paint-order:markers stroke fill;stop-color:#000000"
       d="m 96.46377,17.334135 -12.559336,6.621852 3.110747,6.321683 7.054525,1.026142 z"
       id="path5967" /><path
       style="opacity:1;fill:#ffffff;fill-rule:evenodd;stroke-width:7.93877;stroke-linecap:round;stroke-linejoin:round;paint-order:markers stroke fill;stop-color:#000000"
       d="m 30.78714,17.622419 2.318832,13.424189 6.691355,-0.964048 3.028205,-6.133161 z"
       id="path5736" /><path
       sodipodi:type="star"
       style="opacity:1;fill:#ffffff;fill-rule:evenodd;stroke:none;stroke-width:10.5833;stroke-linecap:round;stroke-linejoin:round;stroke-dasharray:none;paint-order:markers stroke fill;stop-color:#000000"
       id="path5734"
       inkscape:flatsided="false"
       sodipodi:sides="5"
       sodipodi:cx="63.5"
       sodipodi:cy="63.5"
       sodipodi:r1="52.916664"
       sodipodi:r2="26.437099"
       sodipodi:arg1="-1.5707963"
       sodipodi:arg2="-0.94437945"
       inkscape:rounded="0"
       inkscape:randomized="0"
       d="M 63.500001,10.583336 78.998636,42.082426 113.82674,47.147853 88.658666,71.621685 94.603634,106.31048 63.550274,89.937052 32.396364,106.31048 38.372405,71.717312 13.173262,47.14785 47.920018,42.141526 Z"
       inkscape:transform-center-y="-5.0530928" /></g></svg>
