<?xml version="1.0" encoding="UTF-8" standalone="no"?>
<!-- Created with Inkscape (http://www.inkscape.org/) -->

<svg
   width="480"
   height="480"
   viewBox="0 0 127 127"
   version="1.1"
   id="svg5"
   xml:space="preserve"
   inkscape:version="1.2.1 (9c6d41e410, 2022-07-14)"
   sodipodi:docname="focus.svg"
   inkscape:export-filename="20 Parsecs\images\hit.png"
   inkscape:export-xdpi="2.4000001"
   inkscape:export-ydpi="2.4000001"
   xmlns:inkscape="http://www.inkscape.org/namespaces/inkscape"
   xmlns:sodipodi="http://sodipodi.sourceforge.net/DTD/sodipodi-0.dtd"
   xmlns="http://www.w3.org/2000/svg"
   xmlns:svg="http://www.w3.org/2000/svg"><sodipodi:namedview
     id="namedview7"
     pagecolor="#353535"
     bordercolor="#000000"
     borderopacity="0.25"
     inkscape:showpageshadow="2"
     inkscape:pageopacity="0"
     inkscape:pagecheckerboard="0"
     inkscape:deskcolor="#d1d1d1"
     inkscape:document-units="mm"
     showgrid="true"
     inkscape:zoom="0.74564396"
     inkscape:cx="-82.479043"
     inkscape:cy="317.84607"
     inkscape:window-width="1920"
     inkscape:window-height="1017"
     inkscape:window-x="-8"
     inkscape:window-y="-8"
     inkscape:window-maximized="1"
     inkscape:current-layer="layer1"><inkscape:grid
       type="xygrid"
       id="grid419"
       spacingx="5.2916667"
       spacingy="5.2916667"
       empspacing="2"
       originx="0"
       originy="0" /></sodipodi:namedview><defs
     id="defs2" /><g
     inkscape:label="Réteg 1"
     inkscape:groupmode="layer"
     id="layer1"><path
       style="fill:none;fill-rule:evenodd;stroke:#ffffff;stroke-width:10.5833;stroke-linecap:round;stroke-linejoin:round;stroke-dasharray:none;paint-order:markers fill stroke;stop-color:#000000"
       d="m 15.875,63.5 c 21.166667,21.166667 74.083334,21.166667 95.25,-10e-7 C 89.958334,42.333334 37.041667,42.333334 15.875,63.5 Z"
       id="path13492"
       sodipodi:nodetypes="ccc" /><path
       id="path13546"
       style="fill:#ffffff;fill-rule:evenodd;stroke:none;stroke-width:10.5833;stroke-linecap:round;stroke-linejoin:round;stroke-dasharray:none;paint-order:markers fill stroke;stop-color:#000000"
       d="M 63.5 42.333333 A 21.166666 21.166666 0 0 0 42.333333 63.5 A 21.166666 21.166666 0 0 0 63.5 84.666667 A 21.166666 21.166666 0 0 0 84.666667 63.5 A 21.166666 21.166666 0 0 0 63.5 42.333333 z M 68.791667 52.916667 A 5.2916665 5.2916665 0 0 1 74.083333 58.208333 A 5.2916665 5.2916665 0 0 1 68.791667 63.5 A 5.2916665 5.2916665 0 0 1 63.5 58.208333 A 5.2916665 5.2916665 0 0 1 68.791667 52.916667 z " /></g></svg>
