<?xml version="1.0" encoding="UTF-8" standalone="no"?>
<!-- Created with Inkscape (http://www.inkscape.org/) -->

<svg
   width="480"
   height="480"
   viewBox="0 0 127 127"
   version="1.1"
   id="svg5"
   xml:space="preserve"
   inkscape:version="1.2.1 (9c6d41e410, 2022-07-14)"
   sodipodi:docname="gear-mod.svg"
   inkscape:export-filename="20 Parsecs\images\cargo-mod.png"
   inkscape:export-xdpi="2.4000001"
   inkscape:export-ydpi="2.4000001"
   xmlns:inkscape="http://www.inkscape.org/namespaces/inkscape"
   xmlns:sodipodi="http://sodipodi.sourceforge.net/DTD/sodipodi-0.dtd"
   xmlns="http://www.w3.org/2000/svg"
   xmlns:svg="http://www.w3.org/2000/svg"><sodipodi:namedview
     id="namedview7"
     pagecolor="#353535"
     bordercolor="#000000"
     borderopacity="0.25"
     inkscape:showpageshadow="2"
     inkscape:pageopacity="0"
     inkscape:pagecheckerboard="0"
     inkscape:deskcolor="#d1d1d1"
     inkscape:document-units="mm"
     showgrid="true"
     inkscape:zoom="1.0544998"
     inkscape:cx="238.97587"
     inkscape:cy="129.91942"
     inkscape:window-width="1920"
     inkscape:window-height="1017"
     inkscape:window-x="-8"
     inkscape:window-y="-8"
     inkscape:window-maximized="1"
     inkscape:current-layer="layer1"><inkscape:grid
       type="xygrid"
       id="grid419"
       spacingx="5.2916667"
       spacingy="5.2916667"
       empspacing="2"
       originx="0"
       originy="0" /></sodipodi:namedview><defs
     id="defs2" /><g
     inkscape:label="Réteg 1"
     inkscape:groupmode="layer"
     id="layer1"><g
       id="path6472"
       style="fill:#ffffff;stroke:none"><path
         style="color:#000000;fill:#ffffff;fill-rule:evenodd;stroke:none;stroke-width:21.1667;stroke-linecap:round;stroke-linejoin:round;-inkscape-stroke:none;paint-order:markers fill stroke"
         d="M 63.5,63.499999 10.583333,116.41667"
         id="path816" /><path
         id="path818"
         style="color:#000000;fill:#ffffff;fill-rule:evenodd;stroke:none;stroke-width:21.1667;stroke-linecap:round;stroke-linejoin:round;stroke-dasharray:none;paint-order:stroke fill markers"
         d="m 84.666667,10.583333 a 31.749999,31.75 0 0 0 -31.75,31.75 31.749999,31.75 0 0 0 3.102136,13.679785 10.58335,10.58335 0 0 0 -0.0031,0.0026 L 3.0995524,108.9334 a 10.58335,10.58335 0 0 0 0,14.96705 10.58335,10.58335 0 0 0 14.9670446,0 L 70.984298,70.984298 a 10.58335,10.58335 0 0 0 0.0026,-0.0031 31.749999,31.75 0 0 0 13.679785,3.102136 31.749999,31.75 0 0 0 31.750007,-31.75 31.749999,31.75 0 0 0 -2.19522,-11.594124 L 90.246688,54.713973 72.286027,36.753312 96.260791,12.778548 A 31.749999,31.75 0 0 0 84.666667,10.583333 Z" /></g><path
       id="path599"
       style="fill:#ffffff;fill-rule:evenodd;stroke-width:21.1667;stroke-linecap:round;stroke-linejoin:round;paint-order:stroke fill markers;stop-color:#000000"
       d="M 10.583333 10.583333 L 0 21.166667 L 37.949105 59.115771 L 43.824198 53.240161 C 42.875235 49.689199 42.334812 46.033471 42.33385 42.335917 A 10.584409 10.584409 0 0 1 42.33385 42.33385 C 42.33385 39.071908 42.709444 35.892219 43.419055 32.835722 L 31.75 21.166667 L 21.166667 21.166667 L 10.583333 10.583333 z M 102.06095 80.894287 C 96.745382 83.314892 90.853687 84.666151 84.66615 84.66615 A 10.584409 10.584409 0 0 1 84.664083 84.66615 C 80.96653 84.665188 77.310801 84.124765 73.759839 83.175802 L 63.5 93.43564 L 63.5 95.25 L 74.083333 95.25 L 63.5 116.41667 L 74.083333 127 L 84.666667 105.83333 L 95.25 116.41667 L 105.83333 116.41667 L 116.41667 105.83333 L 116.41667 95.25 L 105.83333 84.666667 L 102.06095 80.894287 z " /></g></svg>
