<?xml version="1.0" encoding="UTF-8" standalone="no"?>
<!-- Created with Inkscape (http://www.inkscape.org/) -->

<svg
   width="480"
   height="480"
   viewBox="0 0 127 127"
   version="1.1"
   id="svg5"
   xml:space="preserve"
   inkscape:version="1.2.1 (9c6d41e410, 2022-07-14)"
   sodipodi:docname="illegal cargo.svg"
   inkscape:export-filename="20 Parsecs\images\cargo-bg.png"
   inkscape:export-xdpi="19.200001"
   inkscape:export-ydpi="19.200001"
   xmlns:inkscape="http://www.inkscape.org/namespaces/inkscape"
   xmlns:sodipodi="http://sodipodi.sourceforge.net/DTD/sodipodi-0.dtd"
   xmlns="http://www.w3.org/2000/svg"
   xmlns:svg="http://www.w3.org/2000/svg"><sodipodi:namedview
     id="namedview7"
     pagecolor="#353535"
     bordercolor="#000000"
     borderopacity="0.25"
     inkscape:showpageshadow="2"
     inkscape:pageopacity="0"
     inkscape:pagecheckerboard="0"
     inkscape:deskcolor="#d1d1d1"
     inkscape:document-units="mm"
     showgrid="true"
     inkscape:zoom="1.0544998"
     inkscape:cx="-14.224754"
     inkscape:cy="209.57804"
     inkscape:window-width="1920"
     inkscape:window-height="1017"
     inkscape:window-x="-8"
     inkscape:window-y="-8"
     inkscape:window-maximized="1"
     inkscape:current-layer="layer1"><inkscape:grid
       type="xygrid"
       id="grid419"
       spacingx="5.2916667"
       spacingy="5.2916667"
       empspacing="2"
       originx="0"
       originy="0" /></sodipodi:namedview><defs
     id="defs2" /><g
     inkscape:label="Réteg 1"
     inkscape:groupmode="layer"
     id="layer1"><path
       id="path4478"
       style="opacity:1;fill:#ffffff;fill-rule:evenodd;stroke:none;stroke-width:10.5833;stroke-linecap:round;stroke-linejoin:round;stroke-dasharray:none;paint-order:markers fill stroke;stop-color:#000000"
       d="M 63.5,10.583333 A 52.916664,52.916664 0 0 0 10.583335,63.500001 52.916664,52.916664 0 0 0 63.5,116.41667 52.916664,52.916664 0 0 0 116.41667,63.500001 52.916664,52.916664 0 0 0 63.5,10.583333 Z m 0,10.583334 a 42.333332,42.333332 0 0 1 42.33333,42.333334 42.333332,42.333332 0 0 1 -8.894027,25.955522 L 37.544478,30.060698 A 42.333332,42.333332 0 0 1 63.5,21.166667 Z M 30.060697,37.544479 89.455522,96.939303 A 42.333332,42.333332 0 0 1 63.5,105.83333 42.333332,42.333332 0 0 1 21.166665,63.500001 42.333332,42.333332 0 0 1 30.060697,37.544479 Z" /><path
       id="rect4658"
       style="opacity:1;fill:#ffffff;fill-rule:evenodd;stroke-width:10.5833;stroke-linecap:round;stroke-linejoin:round;paint-order:markers fill stroke;stop-color:#000000"
       d="M 63.5 26.458333 C 57.317269 26.458994 51.26901 28.007044 45.886605 30.917493 L 73.177445 58.208333 L 84.666667 58.208333 L 84.666667 33.064648 C 78.674016 28.898422 71.382862 26.458334 63.5 26.458333 z M 42.333333 57.301412 L 42.333333 58.208333 L 43.240255 58.208333 L 42.333333 57.301412 z " /><path
       id="rect4664"
       style="opacity:1;fill:#ffffff;fill-rule:evenodd;stroke-width:10.5833;stroke-linecap:round;stroke-linejoin:round;paint-order:markers fill stroke;stop-color:#000000"
       d="m 26.833504,68.791667 c 2.308395,16.267399 15.107361,29.066134 31.374829,31.374313 V 73.176412 L 53.823588,68.791667 Z M 15.875,96.919151 V 111.125 H 30.081368 C 24.568407,107.24402 19.756088,102.43203 15.875,96.919151 Z" /><path
       id="rect4670"
       style="opacity:1;fill:#ffffff;fill-rule:evenodd;stroke-width:10.5833;stroke-linecap:round;stroke-linejoin:round;paint-order:markers fill stroke;stop-color:#000000"
       d="M 83.760779 68.791667 L 96.081991 81.112878 C 98.154661 77.279802 99.532199 73.108202 100.15616 68.791667 L 83.760779 68.791667 z M 68.791667 83.759745 L 68.791667 100.15564 C 73.108382 99.531719 77.280167 98.154228 81.113395 96.081474 L 68.791667 83.759745 z M 111.125 96.919149 C 107.24391 102.43203 102.43159 107.24402 96.918632 111.125 L 111.125 111.125 L 111.125 96.919149 z " /></g></svg>
