<?xml version="1.0" encoding="UTF-8" standalone="no"?>
<!-- Created with Inkscape (http://www.inkscape.org/) -->

<svg
   width="480"
   height="480"
   viewBox="0 0 127 127"
   version="1.1"
   id="svg5"
   xml:space="preserve"
   inkscape:version="1.2.1 (9c6d41e410, 2022-07-14)"
   sodipodi:docname="job.svg"
   inkscape:export-filename="20 Parsecs\images\job.png"
   inkscape:export-xdpi="2.4000001"
   inkscape:export-ydpi="2.4000001"
   xmlns:inkscape="http://www.inkscape.org/namespaces/inkscape"
   xmlns:sodipodi="http://sodipodi.sourceforge.net/DTD/sodipodi-0.dtd"
   xmlns="http://www.w3.org/2000/svg"
   xmlns:svg="http://www.w3.org/2000/svg"><sodipodi:namedview
     id="namedview7"
     pagecolor="#353535"
     bordercolor="#000000"
     borderopacity="0.25"
     inkscape:showpageshadow="2"
     inkscape:pageopacity="0"
     inkscape:pagecheckerboard="0"
     inkscape:deskcolor="#d1d1d1"
     inkscape:document-units="mm"
     showgrid="true"
     inkscape:zoom="0.74564396"
     inkscape:cx="-8.0467359"
     inkscape:cy="244.08432"
     inkscape:window-width="1920"
     inkscape:window-height="1017"
     inkscape:window-x="-8"
     inkscape:window-y="-8"
     inkscape:window-maximized="1"
     inkscape:current-layer="layer1"><inkscape:grid
       type="xygrid"
       id="grid419"
       spacingx="5.2916667"
       spacingy="5.2916667"
       empspacing="2"
       originx="0"
       originy="0" /></sodipodi:namedview><defs
     id="defs2" /><g
     inkscape:label="Réteg 1"
     inkscape:groupmode="layer"
     id="layer1"><path
       id="path604"
       style="fill:#ffffff;fill-rule:evenodd;stroke:none;stroke-width:0.529165;stroke-linecap:round;stroke-linejoin:round;paint-order:stroke fill markers;stop-color:#000000"
       d="M 63.5 31.75 A 21.166664 21.166664 0 0 0 42.333333 52.916667 L 21.166667 52.916667 C 15.30351 52.916667 10.583333 57.636844 10.583333 63.5 L 10.583333 70.114583 L 63.5 84.293563 L 116.41667 70.114583 L 116.41667 63.5 C 116.41667 57.636844 111.69649 52.916667 105.83333 52.916667 L 84.666667 52.916667 A 21.166664 21.166664 0 0 0 63.5 31.75 z M 63.5 42.333333 A 10.583333 10.583333 0 0 1 74.083333 52.916667 L 52.916667 52.916667 A 10.583333 10.583333 0 0 1 63.5 42.333333 z M 10.583333 81.071021 L 10.583333 105.83333 C 10.583333 111.6965 15.30351 116.41667 21.166667 116.41667 L 105.83333 116.41667 C 111.69649 116.41667 116.41667 111.6965 116.41667 105.83333 L 116.41667 81.071021 L 63.5 95.25 L 10.583333 81.071021 z " /></g></svg>
