<?xml version="1.0" encoding="UTF-8" standalone="no"?>
<!-- Created with Inkscape (http://www.inkscape.org/) -->

<svg
   width="480"
   height="480"
   viewBox="0 0 127 127"
   version="1.1"
   id="svg5"
   xml:space="preserve"
   inkscape:version="1.2.1 (9c6d41e410, 2022-07-14)"
   sodipodi:docname="patrol a.svg"
   inkscape:export-filename="20 Parsecs\images\patrol a.png"
   inkscape:export-xdpi="2.4000001"
   inkscape:export-ydpi="2.4000001"
   xmlns:inkscape="http://www.inkscape.org/namespaces/inkscape"
   xmlns:sodipodi="http://sodipodi.sourceforge.net/DTD/sodipodi-0.dtd"
   xmlns="http://www.w3.org/2000/svg"
   xmlns:svg="http://www.w3.org/2000/svg"><sodipodi:namedview
     id="namedview7"
     pagecolor="#353535"
     bordercolor="#000000"
     borderopacity="0.25"
     inkscape:showpageshadow="2"
     inkscape:pageopacity="0"
     inkscape:pagecheckerboard="0"
     inkscape:deskcolor="#d1d1d1"
     inkscape:document-units="mm"
     showgrid="true"
     inkscape:zoom="0.97968464"
     inkscape:cx="165.35933"
     inkscape:cy="345.00898"
     inkscape:window-width="1920"
     inkscape:window-height="1017"
     inkscape:window-x="-8"
     inkscape:window-y="-8"
     inkscape:window-maximized="1"
     inkscape:current-layer="layer1"><inkscape:grid
       type="xygrid"
       id="grid419"
       spacingx="5.2916667"
       spacingy="5.2916667"
       empspacing="2"
       originx="0"
       originy="0" /></sodipodi:namedview><defs
     id="defs2" /><g
     inkscape:label="Réteg 1"
     inkscape:groupmode="layer"
     id="layer1"><path
       id="path14448"
       style="fill:#ffffff;fill-rule:evenodd;stroke:none;stroke-width:126.492;stroke-linecap:round;stroke-linejoin:round;paint-order:markers fill stroke;stop-color:#000000"
       d="M 42.333333 10.583333 L 31.75 31.75 L 31.75 21.166667 L 21.166667 21.166667 L 21.166667 52.916667 L 10.583333 74.083333 L 10.583333 116.41667 L 21.166667 105.83333 L 21.166667 116.41667 L 31.75 116.41667 L 31.75 105.83333 L 42.333333 116.41667 L 84.666667 116.41667 L 95.25 105.83333 L 95.25 116.41667 L 105.83333 116.41667 L 105.83333 105.83333 L 116.41667 116.41667 L 116.41667 74.083333 L 105.83333 52.916667 L 105.83333 21.166667 L 95.25 21.166667 L 95.25 31.75 L 84.666667 10.583333 L 42.333333 10.583333 z M 63.5 21.168217 A 5.292179 5.292179 0 0 1 68.232528 24.091553 L 94.673291 76.973079 L 105.27523 98.17592 A 5.2916498 5.2916498 0 0 1 102.90845 105.27523 A 5.2916498 5.2916498 0 0 1 95.808622 102.90845 L 86.687732 84.66615 L 40.312268 84.66615 L 31.191378 102.90845 A 5.2916498 5.2916498 0 0 1 24.091553 105.27523 A 5.2916498 5.2916498 0 0 1 21.724772 98.17592 L 32.326709 76.973079 L 58.767472 24.091553 A 5.292179 5.292179 0 0 1 63.5 21.168217 z M 63.5 38.289136 L 45.603418 74.08385 L 81.396582 74.08385 L 63.5 38.289136 z " /></g></svg>
