<?xml version="1.0" encoding="UTF-8" standalone="no"?>
<!-- Created with Inkscape (http://www.inkscape.org/) -->

<svg
   width="480"
   height="480"
   viewBox="0 0 127 127"
   version="1.1"
   id="svg5"
   xml:space="preserve"
   inkscape:version="1.2.1 (9c6d41e410, 2022-07-14)"
   sodipodi:docname="patrol d.svg"
   inkscape:export-filename="20 Parsecs\images\patrol-b-icon.png"
   inkscape:export-xdpi="2.4000001"
   inkscape:export-ydpi="2.4000001"
   xmlns:inkscape="http://www.inkscape.org/namespaces/inkscape"
   xmlns:sodipodi="http://sodipodi.sourceforge.net/DTD/sodipodi-0.dtd"
   xmlns="http://www.w3.org/2000/svg"
   xmlns:svg="http://www.w3.org/2000/svg"><sodipodi:namedview
     id="namedview7"
     pagecolor="#353535"
     bordercolor="#000000"
     borderopacity="0.25"
     inkscape:showpageshadow="2"
     inkscape:pageopacity="0"
     inkscape:pagecheckerboard="0"
     inkscape:deskcolor="#d1d1d1"
     inkscape:document-units="mm"
     showgrid="true"
     inkscape:zoom="0.97968464"
     inkscape:cx="19.393996"
     inkscape:cy="279.68184"
     inkscape:window-width="1920"
     inkscape:window-height="1017"
     inkscape:window-x="-8"
     inkscape:window-y="-8"
     inkscape:window-maximized="1"
     inkscape:current-layer="layer1"><inkscape:grid
       type="xygrid"
       id="grid419"
       spacingx="5.2916667"
       spacingy="5.2916667"
       empspacing="2"
       originx="0"
       originy="0" /></sodipodi:namedview><defs
     id="defs2" /><g
     inkscape:label="Réteg 1"
     inkscape:groupmode="layer"
     id="layer1"><path
       id="path14448"
       style="fill:#ffffff;fill-rule:evenodd;stroke:none;stroke-width:126.492;stroke-linecap:round;stroke-linejoin:round;paint-order:markers fill stroke;stop-color:#000000"
       d="M 42.333333,10.583333 31.75,31.75 V 21.166667 H 21.166667 v 31.75 L 10.583333,74.083333 v 42.333337 l 10.583334,-10.58334 v 10.58334 H 31.75 v -10.58334 l 10.583333,10.58334 h 42.333334 l 10.583334,-10.58334 -10e-7,10.58334 h 10.58333 v -10.58334 l 10.58334,10.58334 V 74.083333 L 105.83333,52.916667 v -31.75 H 95.250001 V 31.75 L 84.666667,10.583333 Z"
       sodipodi:nodetypes="ccccccccccccccccccccccccc" /><path
       style="color:#000000;fill:#000000;fill-rule:evenodd;stroke-linecap:round;stroke-linejoin:round;-inkscape-stroke:none;paint-order:markers fill stroke"
       d="m 37.041667,21.166667 v 0 84.666663 0 l 31.749349,6.5e-4 C 82.904214,105.83427 95.25,92.310107 95.25,74.083984 V 52.916016 c 0,-18.226826 -12.347898,-31.75 -26.458984,-31.75 z M 47.625,31.75 h 21.166016 c 7.05556,0 15.875,7.642873 15.875,21.166016 v 21.167968 c 0,13.523846 -8.81522,21.166016 -15.875,21.166016 H 47.625 Z"
       id="path17088"
       sodipodi:nodetypes="ccccssssccsssscc" /></g></svg>
