<?xml version="1.0" encoding="UTF-8" standalone="no"?>
<!-- Created with Inkscape (http://www.inkscape.org/) -->

<svg
   width="480"
   height="480"
   viewBox="0 0 127 127"
   version="1.1"
   id="svg5"
   xml:space="preserve"
   inkscape:version="1.2.1 (9c6d41e410, 2022-07-14)"
   sodipodi:docname="patrol b.svg"
   inkscape:export-filename="20 Parsecs\images\patrol-b-icon.png"
   inkscape:export-xdpi="2.4000001"
   inkscape:export-ydpi="2.4000001"
   xmlns:inkscape="http://www.inkscape.org/namespaces/inkscape"
   xmlns:sodipodi="http://sodipodi.sourceforge.net/DTD/sodipodi-0.dtd"
   xmlns="http://www.w3.org/2000/svg"
   xmlns:svg="http://www.w3.org/2000/svg"><sodipodi:namedview
     id="namedview7"
     pagecolor="#353535"
     bordercolor="#000000"
     borderopacity="0.25"
     inkscape:showpageshadow="2"
     inkscape:pageopacity="0"
     inkscape:pagecheckerboard="0"
     inkscape:deskcolor="#d1d1d1"
     inkscape:document-units="mm"
     showgrid="true"
     inkscape:zoom="0.48984232"
     inkscape:cx="-391.96287"
     inkscape:cy="151.06902"
     inkscape:window-width="1920"
     inkscape:window-height="1017"
     inkscape:window-x="-8"
     inkscape:window-y="-8"
     inkscape:window-maximized="1"
     inkscape:current-layer="layer1"><inkscape:grid
       type="xygrid"
       id="grid419"
       spacingx="5.2916667"
       spacingy="5.2916667"
       empspacing="2"
       originx="0"
       originy="0" /></sodipodi:namedview><defs
     id="defs2" /><g
     inkscape:label="Réteg 1"
     inkscape:groupmode="layer"
     id="layer1"><path
       id="path14448"
       style="fill:#ffffff;fill-rule:evenodd;stroke:none;stroke-width:126.492;stroke-linecap:round;stroke-linejoin:round;paint-order:markers fill stroke;stop-color:#000000"
       d="M 42.333333,10.583333 37.041667,21.166667 H 31.75 21.166667 v 31.75 L 10.583333,74.083333 v 42.333337 l 10.583334,-10.58334 v 10.58334 H 31.75 v -10.58334 l 10.583333,10.58334 h 42.333334 l 10.583334,-10.58334 -10e-7,10.58334 h 10.58333 v -10.58334 l 10.58334,10.58334 V 74.083333 L 105.83333,52.916667 v -31.75 H 95.250001 V 31.75 L 84.666667,10.583333 Z M 63.5,21.166667 c 15.875001,0 26.458334,10.583333 26.458334,26.458333 0,5.291667 -0.565193,7.266466 -2.861038,12.634162 3.375874,3.375873 8.422775,8.642236 8.153738,19.115322 -0.001,15.875517 -10.584367,26.458846 -26.459367,26.458846 H 31.75 V 21.166675 Z M 52.916667,42.333334 V 52.916667 H 63.5 c 3.154966,0 5.291666,-2.23747 5.291666,-5.290634 0,-3.053163 -2.093276,-5.291666 -5.291666,-5.291666 z m 0,31.75 V 84.666667 H 63.5 c 5.291667,0 10.583334,0 10.583334,-5.291666 0,-5.291667 -5.291667,-5.291667 -10.583334,-5.291667 z"
       sodipodi:nodetypes="cccccccccccccccccccccccccccccccccccczccccczcc" /></g></svg>
