<?xml version="1.0" encoding="UTF-8" standalone="no"?>
<!-- Created with Inkscape (http://www.inkscape.org/) -->

<svg
   width="480"
   height="480"
   viewBox="0 0 127 127"
   version="1.1"
   id="svg5"
   xml:space="preserve"
   inkscape:version="1.2.1 (9c6d41e410, 2022-07-14)"
   sodipodi:docname="patrol b.svg"
   inkscape:export-filename="20 Parsecs\images\patrol-b-icon.png"
   inkscape:export-xdpi="2.4000001"
   inkscape:export-ydpi="2.4000001"
   xmlns:inkscape="http://www.inkscape.org/namespaces/inkscape"
   xmlns:sodipodi="http://sodipodi.sourceforge.net/DTD/sodipodi-0.dtd"
   xmlns="http://www.w3.org/2000/svg"
   xmlns:svg="http://www.w3.org/2000/svg"><sodipodi:namedview
     id="namedview7"
     pagecolor="#353535"
     bordercolor="#000000"
     borderopacity="0.25"
     inkscape:showpageshadow="2"
     inkscape:pageopacity="0"
     inkscape:pagecheckerboard="0"
     inkscape:deskcolor="#d1d1d1"
     inkscape:document-units="mm"
     showgrid="true"
     inkscape:zoom="0.48984232"
     inkscape:cx="-667.56176"
     inkscape:cy="336.84309"
     inkscape:window-width="1920"
     inkscape:window-height="1017"
     inkscape:window-x="-8"
     inkscape:window-y="-8"
     inkscape:window-maximized="1"
     inkscape:current-layer="layer1"><inkscape:grid
       type="xygrid"
       id="grid419"
       spacingx="5.2916667"
       spacingy="5.2916667"
       empspacing="2"
       originx="0"
       originy="0" /></sodipodi:namedview><defs
     id="defs2" /><g
     inkscape:label="Réteg 1"
     inkscape:groupmode="layer"
     id="layer1"><path
       id="path14448"
       style="fill:#ffffff;fill-rule:evenodd;stroke:none;stroke-width:126.492;stroke-linecap:round;stroke-linejoin:round;paint-order:markers fill stroke;stop-color:#000000"
       d="M 42.333333,10.583333 31.75,31.75 V 21.166667 H 21.166667 v 31.75 L 10.583333,74.083333 v 42.333337 l 10.583334,-10.58334 v 10.58334 H 31.75 v -10.58334 l 10.583333,10.58334 h 42.333334 l 10.583334,-10.58334 -10e-7,10.58334 h 10.58333 v -10.58334 l 10.58334,10.58334 V 74.083333 L 105.83333,52.916667 v -31.75 l -10.583329,0 V 31.75 L 84.666667,10.583333 Z m 31.750001,10.582301 c 4.409701,-1.23e-4 8.678345,2.311226 11.509375,6.085933 2.83103,3.774709 4.365625,8.908177 4.365625,15.081767 0,6.023953 -1.482774,11.034251 -4.183724,14.781527 1.784343,1.387992 3.405021,2.949782 4.619356,4.771285 3.398459,5.097688 4.857068,11.314749 4.857068,17.488338 10e-7,6.173591 -1.458608,12.390648 -4.857068,17.488338 -3.398457,5.097688 -9.255102,8.970508 -16.310632,8.970508 H 37.041667 V 21.166671 Z m -26.45885,10.58437 v 21.16615 l 26.45885,-5.2e-4 c 0.881946,-1.7e-5 1.905,-0.334622 3.042708,-1.851567 1.137708,-1.516943 2.249992,-4.32102 2.249992,-8.730733 0,-4.409711 -1.112284,-7.21534 -2.249992,-8.732283 -1.137707,-1.516944 -2.160762,-1.851584 -3.042708,-1.851567 z m 0,31.75 v 31.75 l 26.45885,-5.2e-4 c 3.527771,-6.9e-5 5.610743,-1.417831 7.503935,-4.257621 1.893192,-2.839789 3.079915,-7.207665 3.079915,-11.617379 0,-4.409712 -1.186724,-8.777591 -3.079915,-11.617379 -1.893191,-2.839787 -3.976164,-4.25769 -7.503935,-4.257621 z"
       sodipodi:nodetypes="cccccccccccccccccccccccccssscssssccsccssssscccsssssc" /></g></svg>
