<?xml version="1.0" encoding="UTF-8" standalone="no"?>
<!-- Created with Inkscape (http://www.inkscape.org/) -->

<svg
   width="480"
   height="480"
   viewBox="0 0 127 127"
   version="1.1"
   id="svg5"
   xml:space="preserve"
   inkscape:version="1.2.1 (9c6d41e410, 2022-07-14)"
   sodipodi:docname="planning.svg"
   inkscape:export-filename="20 Parsecs\images\action.png"
   inkscape:export-xdpi="2.4000001"
   inkscape:export-ydpi="2.4000001"
   xmlns:inkscape="http://www.inkscape.org/namespaces/inkscape"
   xmlns:sodipodi="http://sodipodi.sourceforge.net/DTD/sodipodi-0.dtd"
   xmlns="http://www.w3.org/2000/svg"
   xmlns:svg="http://www.w3.org/2000/svg"><sodipodi:namedview
     id="namedview7"
     pagecolor="#353535"
     bordercolor="#000000"
     borderopacity="0.25"
     inkscape:showpageshadow="2"
     inkscape:pageopacity="0"
     inkscape:pagecheckerboard="0"
     inkscape:deskcolor="#d1d1d1"
     inkscape:document-units="mm"
     showgrid="true"
     inkscape:zoom="1.0544998"
     inkscape:cx="214.31962"
     inkscape:cy="288.28834"
     inkscape:window-width="1920"
     inkscape:window-height="1017"
     inkscape:window-x="-8"
     inkscape:window-y="-8"
     inkscape:window-maximized="1"
     inkscape:current-layer="layer1"><inkscape:grid
       type="xygrid"
       id="grid419"
       spacingx="5.2916667"
       spacingy="5.2916667"
       empspacing="2"
       originx="0"
       originy="0" /></sodipodi:namedview><defs
     id="defs2" /><g
     inkscape:label="Réteg 1"
     inkscape:groupmode="layer"
     id="layer1"><path
       id="rect2917"
       style="fill:#ffffff;fill-rule:evenodd;stroke-width:21.1667;stroke-linecap:round;stroke-linejoin:round;paint-order:stroke fill markers;stop-color:#000000"
       d="M 42.333333 10.583333 C 30.607011 10.583333 21.166667 20.023678 21.166667 31.75 L 21.166667 95.25 C 21.166667 106.97632 30.607011 116.41667 42.333333 116.41667 L 84.666667 116.41667 C 96.392989 116.41667 105.83333 106.97632 105.83333 95.25 L 105.83333 31.75 C 105.83333 20.023678 96.392989 10.583333 84.666667 10.583333 L 42.333333 10.583333 z M 31.75 31.75 L 42.333333 31.75 L 42.333333 42.333333 L 31.75 42.333333 L 31.75 31.75 z M 52.916667 31.75 L 95.25 31.75 L 95.25 42.333333 L 52.916667 42.333333 L 52.916667 31.75 z M 31.75 52.916667 L 42.333333 52.916667 L 42.333333 63.5 L 31.75 63.5 L 31.75 52.916667 z M 52.916667 52.916667 L 95.25 52.916667 L 95.25 63.5 L 52.916667 63.5 L 52.916667 52.916667 z M 31.75 74.083333 L 42.333333 74.083333 L 42.333333 84.666667 L 31.75 84.666667 L 31.75 74.083333 z M 52.916667 74.083333 L 95.25 74.083333 L 95.25 84.666667 L 52.916667 84.666667 L 52.916667 74.083333 z " /></g></svg>
