<?xml version="1.0" encoding="UTF-8" standalone="no"?>
<!-- Created with Inkscape (http://www.inkscape.org/) -->

<svg
   width="480"
   height="480"
   viewBox="0 0 127 127"
   version="1.1"
   id="svg5"
   xml:space="preserve"
   inkscape:version="1.2.1 (9c6d41e410, 2022-07-14)"
   sodipodi:docname="positive-rep-b.svg"
   inkscape:export-filename="20 Parsecs\images\positive-rep-b.png"
   inkscape:export-xdpi="2.4000001"
   inkscape:export-ydpi="2.4000001"
   xmlns:inkscape="http://www.inkscape.org/namespaces/inkscape"
   xmlns:sodipodi="http://sodipodi.sourceforge.net/DTD/sodipodi-0.dtd"
   xmlns="http://www.w3.org/2000/svg"
   xmlns:svg="http://www.w3.org/2000/svg"><sodipodi:namedview
     id="namedview7"
     pagecolor="#353535"
     bordercolor="#000000"
     borderopacity="0.25"
     inkscape:showpageshadow="2"
     inkscape:pageopacity="0"
     inkscape:pagecheckerboard="0"
     inkscape:deskcolor="#d1d1d1"
     inkscape:document-units="mm"
     showgrid="true"
     inkscape:zoom="1.3854833"
     inkscape:cx="94.551843"
     inkscape:cy="274.99429"
     inkscape:window-width="1920"
     inkscape:window-height="1017"
     inkscape:window-x="-8"
     inkscape:window-y="-8"
     inkscape:window-maximized="1"
     inkscape:current-layer="layer1"><inkscape:grid
       type="xygrid"
       id="grid419"
       spacingx="5.2916667"
       spacingy="5.2916667"
       empspacing="2"
       originx="0"
       originy="0" /></sodipodi:namedview><defs
     id="defs2" /><g
     inkscape:label="Réteg 1"
     inkscape:groupmode="layer"
     id="layer1"><rect
       style="fill:#ffffff;fill-rule:evenodd;stroke-width:0.264583;stroke-linecap:round;stroke-linejoin:round;paint-order:stroke fill markers;stop-color:#000000"
       id="rect360"
       width="10.583333"
       height="31.75"
       x="105.83333"
       y="0" /><rect
       style="fill:#ffffff;fill-rule:evenodd;stroke-width:0.264583;stroke-linecap:round;stroke-linejoin:round;paint-order:stroke fill markers;stop-color:#000000"
       id="rect362"
       width="31.75"
       height="10.583333"
       x="95.25"
       y="10.583333" /><path
       id="path14448"
       style="fill:#ffffff;fill-rule:evenodd;stroke:none;stroke-width:126.492;stroke-linecap:round;stroke-linejoin:round;paint-order:markers fill stroke;stop-color:#000000"
       d="M 42.333333 10.583333 L 37.041667 21.166667 L 63.5 21.166667 C 72.65632 21.166667 80.046463 24.692869 84.666667 30.719055 L 84.666667 10.583333 L 42.333333 10.583333 z M 21.166667 21.166667 L 21.166667 52.916667 L 10.583333 74.083333 L 10.583333 116.41667 L 21.166667 105.83333 L 21.166667 116.41667 L 31.75 116.41667 L 31.75 105.83333 L 31.75 21.166667 L 21.166667 21.166667 z M 31.75 105.83333 L 42.333333 116.41667 L 84.666667 116.41667 L 95.25 105.83333 L 95.25 116.41667 L 105.83333 116.41667 L 105.83333 105.83333 L 116.41667 116.41667 L 116.41667 74.083333 L 105.83333 52.916667 L 105.83333 42.333333 L 95.25 42.333333 L 95.25 31.75 L 85.412874 31.75 C 88.333588 36.023198 89.958333 41.416698 89.958333 47.625 C 89.958333 52.916662 89.393369 54.89168 87.097526 60.259371 C 90.473397 63.635241 95.520073 68.901408 95.251034 79.374483 C 95.250034 95.249984 84.666651 105.83333 68.791667 105.83333 L 31.75 105.83333 z M 52.916667 42.333333 L 52.916667 52.916667 L 63.5 52.916667 C 66.654963 52.916667 68.791667 50.679194 68.791667 47.626034 C 68.791667 44.572874 66.698387 42.334367 63.5 42.334367 L 52.916667 42.333333 z M 52.916667 74.083333 L 52.916667 84.666667 L 63.5 84.666667 C 68.791662 84.666667 74.083333 84.666661 74.083333 79.375 C 74.083333 74.083338 68.791662 74.083333 63.5 74.083333 L 52.916667 74.083333 z " /></g></svg>
