<?xml version="1.0" encoding="UTF-8" standalone="no"?>
<!-- Created with Inkscape (http://www.inkscape.org/) -->

<svg
   width="480"
   height="480"
   viewBox="0 0 127 127"
   version="1.1"
   id="svg5"
   xml:space="preserve"
   inkscape:version="1.2.1 (9c6d41e410, 2022-07-14)"
   sodipodi:docname="positive-rep-a.svg"
   inkscape:export-filename="20 Parsecs\images\patrol-a-icon.png"
   inkscape:export-xdpi="2.4000001"
   inkscape:export-ydpi="2.4000001"
   xmlns:inkscape="http://www.inkscape.org/namespaces/inkscape"
   xmlns:sodipodi="http://sodipodi.sourceforge.net/DTD/sodipodi-0.dtd"
   xmlns="http://www.w3.org/2000/svg"
   xmlns:svg="http://www.w3.org/2000/svg"><sodipodi:namedview
     id="namedview7"
     pagecolor="#353535"
     bordercolor="#000000"
     borderopacity="0.25"
     inkscape:showpageshadow="2"
     inkscape:pageopacity="0"
     inkscape:pagecheckerboard="0"
     inkscape:deskcolor="#d1d1d1"
     inkscape:document-units="mm"
     showgrid="true"
     inkscape:zoom="1.3854833"
     inkscape:cx="94.551843"
     inkscape:cy="274.99429"
     inkscape:window-width="1920"
     inkscape:window-height="1017"
     inkscape:window-x="-8"
     inkscape:window-y="-8"
     inkscape:window-maximized="1"
     inkscape:current-layer="layer1"><inkscape:grid
       type="xygrid"
       id="grid419"
       spacingx="5.2916667"
       spacingy="5.2916667"
       empspacing="2"
       originx="0"
       originy="0" /></sodipodi:namedview><defs
     id="defs2" /><g
     inkscape:label="Réteg 1"
     inkscape:groupmode="layer"
     id="layer1"><path
       id="path14448"
       style="fill:#ffffff;fill-rule:evenodd;stroke:none;stroke-width:126.492;stroke-linecap:round;stroke-linejoin:round;paint-order:markers fill stroke;stop-color:#000000"
       d="M 42.333333 10.583333 L 31.75 31.75 L 31.75 21.166667 L 21.166667 21.166667 L 21.166667 52.916667 L 10.583333 74.083333 L 10.583333 116.41667 L 21.166667 105.83333 L 21.166667 116.41667 L 31.75 116.41667 L 31.75 105.83333 A 10.58335 10.58335 0 0 1 27.017472 104.71661 A 10.58335 10.58335 0 0 1 22.283394 90.517472 L 54.033394 27.017472 A 10.584409 10.584409 0 0 1 59.681628 21.880835 A 10.584409 10.584409 0 0 1 62.719169 21.196639 A 10.584409 10.584409 0 0 1 63.8545 21.173901 A 10.584409 10.584409 0 0 1 72.966606 27.017472 L 104.71661 90.517472 A 10.58335 10.58335 0 0 1 99.982528 104.71661 A 10.58335 10.58335 0 0 1 95.25 105.83333 L 95.25 116.41667 L 105.83333 116.41667 L 105.83333 105.83333 L 116.41667 116.41667 L 116.41667 74.083333 L 105.83333 52.916667 L 105.83333 42.333333 L 95.25 42.333333 L 95.25 31.75 L 84.666667 31.75 L 84.666667 10.583333 L 42.333333 10.583333 z M 95.25 105.83333 A 10.58335 10.58335 0 0 1 85.783394 99.982528 L 83.417131 95.25 L 43.582869 95.25 L 41.216606 99.982528 A 10.58335 10.58335 0 0 1 31.75 105.83333 L 42.333333 116.41667 L 84.666667 116.41667 L 95.25 105.83333 z M 63.5 55.416256 L 54.166203 74.083333 L 72.833797 74.083333 L 63.5 55.416256 z " /><rect
       style="fill:#ffffff;fill-rule:evenodd;stroke-width:0.264583;stroke-linecap:round;stroke-linejoin:round;paint-order:stroke fill markers;stop-color:#000000"
       id="rect360"
       width="10.583333"
       height="31.75"
       x="105.83333"
       y="0" /><rect
       style="fill:#ffffff;fill-rule:evenodd;stroke-width:0.264583;stroke-linecap:round;stroke-linejoin:round;paint-order:stroke fill markers;stop-color:#000000"
       id="rect362"
       width="31.75"
       height="10.583333"
       x="95.25"
       y="10.583333" /></g></svg>
