<?xml version="1.0" encoding="UTF-8" standalone="no"?>
<!-- Created with Inkscape (http://www.inkscape.org/) -->

<svg
   width="480"
   height="480"
   viewBox="0 0 127 127"
   version="1.1"
   id="svg5"
   xml:space="preserve"
   inkscape:version="1.2.1 (9c6d41e410, 2022-07-14)"
   sodipodi:docname="repair.svg"
   inkscape:export-filename="20 Parsecs\images\ship-attack.png"
   inkscape:export-xdpi="2.4000001"
   inkscape:export-ydpi="2.4000001"
   xmlns:inkscape="http://www.inkscape.org/namespaces/inkscape"
   xmlns:sodipodi="http://sodipodi.sourceforge.net/DTD/sodipodi-0.dtd"
   xmlns="http://www.w3.org/2000/svg"
   xmlns:svg="http://www.w3.org/2000/svg"><sodipodi:namedview
     id="namedview7"
     pagecolor="#353535"
     bordercolor="#000000"
     borderopacity="0.25"
     inkscape:showpageshadow="2"
     inkscape:pageopacity="0"
     inkscape:pagecheckerboard="0"
     inkscape:deskcolor="#d1d1d1"
     inkscape:document-units="mm"
     showgrid="true"
     inkscape:zoom="1.0544998"
     inkscape:cx="-42.674261"
     inkscape:cy="186.81843"
     inkscape:window-width="1920"
     inkscape:window-height="1017"
     inkscape:window-x="-8"
     inkscape:window-y="-8"
     inkscape:window-maximized="1"
     inkscape:current-layer="layer1"><inkscape:grid
       type="xygrid"
       id="grid419"
       spacingx="5.2916667"
       spacingy="5.2916667"
       empspacing="2"
       originx="0"
       originy="0" /></sodipodi:namedview><defs
     id="defs2" /><g
     inkscape:label="Réteg 1"
     inkscape:groupmode="layer"
     id="layer1"><path
       id="rect798"
       style="fill:#ffffff;fill-rule:evenodd;stroke-width:20.6566;stroke-linecap:round;stroke-linejoin:round;paint-order:stroke fill markers;stop-color:#000000;stroke:none"
       d="M 10.583333 10.583333 L 10.583333 74.083333 L 22.981026 74.083333 L 43.824198 53.240161 C 42.875236 49.689201 42.334812 46.033469 42.33385 42.335917 A 10.584391 10.584391 0 0 1 42.33385 42.33385 C 42.33385 29.730139 47.94523 18.361162 56.78103 10.583333 L 10.583333 10.583333 z M 106.61003 10.583333 A 10.584391 10.584391 0 0 1 103.74406 20.261812 L 102.8392 21.166667 L 105.83333 21.166667 L 105.83333 24.160799 L 106.73819 23.255945 A 10.584391 10.584391 0 0 1 116.41667 20.392037 L 116.41667 10.583333 L 106.61003 10.583333 z M 21.166667 21.166667 L 31.75 21.166667 L 31.75 31.75 L 21.166667 31.75 L 21.166667 21.166667 z M 95.25 28.756901 L 87.254106 36.753829 L 90.246171 39.745894 L 98.243099 31.75 L 95.25 31.75 L 95.25 28.756901 z M 116.41667 70.21897 C 108.63883 79.05477 97.269833 84.666152 84.66615 84.66615 A 10.584391 10.584391 0 0 1 84.664083 84.66615 C 80.966532 84.665188 77.310799 84.124764 73.759839 83.175802 L 40.518974 116.41667 L 116.41667 116.41667 L 116.41667 70.21897 z M 10.583333 84.666667 L 10.583333 86.481026 L 12.397693 84.666667 L 10.583333 84.666667 z M 95.25 95.25 L 105.83333 95.25 L 105.83333 105.83333 L 95.25 105.83333 L 95.25 95.25 z " /><path
       id="path6472"
       style="color:#000000;fill:#ffffff;fill-rule:evenodd;stroke-linecap:round;stroke-linejoin:round;paint-order:markers stroke fill;stroke:none;stroke-width:21.16666667;stroke-dasharray:none"
       d="M 84.666667 10.583333 A 31.749999 31.75 0 0 0 52.916667 42.333333 A 31.749999 31.75 0 0 0 56.018803 56.013118 A 10.58335 10.58335 0 0 0 56.015702 56.015702 L 3.0995524 108.9334 A 10.58335 10.58335 0 0 0 3.0995524 123.90045 A 10.58335 10.58335 0 0 0 18.066597 123.90045 L 70.984298 70.984298 A 10.58335 10.58335 0 0 0 70.986882 70.981197 A 31.749999 31.75 0 0 0 84.666667 74.083333 A 31.749999 31.75 0 0 0 116.41667 42.333333 A 31.749999 31.75 0 0 0 114.22145 30.739209 L 90.246688 54.713973 L 72.286027 36.753312 L 96.260791 12.778548 A 31.749999 31.75 0 0 0 84.666667 10.583333 z " /></g></svg>
