<?xml version="1.0" encoding="UTF-8" standalone="no"?>
<!-- Created with Inkscape (http://www.inkscape.org/) -->

<svg
   width="480"
   height="480"
   viewBox="0 0 127 127"
   version="1.1"
   id="svg5"
   xml:space="preserve"
   inkscape:version="1.2.1 (9c6d41e410, 2022-07-14)"
   sodipodi:docname="ship-attack.svg"
   inkscape:export-filename="20 Parsecs\images\ship-attack.png"
   inkscape:export-xdpi="2.4000001"
   inkscape:export-ydpi="2.4000001"
   xmlns:inkscape="http://www.inkscape.org/namespaces/inkscape"
   xmlns:sodipodi="http://sodipodi.sourceforge.net/DTD/sodipodi-0.dtd"
   xmlns="http://www.w3.org/2000/svg"
   xmlns:svg="http://www.w3.org/2000/svg"><sodipodi:namedview
     id="namedview7"
     pagecolor="#353535"
     bordercolor="#000000"
     borderopacity="0.25"
     inkscape:showpageshadow="2"
     inkscape:pageopacity="0"
     inkscape:pagecheckerboard="0"
     inkscape:deskcolor="#d1d1d1"
     inkscape:document-units="mm"
     showgrid="true"
     inkscape:zoom="0.74564396"
     inkscape:cx="347.35077"
     inkscape:cy="417.08914"
     inkscape:window-width="1920"
     inkscape:window-height="1017"
     inkscape:window-x="-8"
     inkscape:window-y="-8"
     inkscape:window-maximized="1"
     inkscape:current-layer="layer1"><inkscape:grid
       type="xygrid"
       id="grid419"
       spacingx="5.2916667"
       spacingy="5.2916667"
       empspacing="2"
       originx="0"
       originy="0" /></sodipodi:namedview><defs
     id="defs2" /><g
     inkscape:label="Réteg 1"
     inkscape:groupmode="layer"
     id="layer1"><path
       style="fill:#ffffff;fill-rule:evenodd;stroke-width:21.1667;stroke-linecap:round;stroke-linejoin:round;paint-order:stroke fill markers;stop-color:#000000"
       d="M 116.41667,52.916666 95.249998,63.5 84.666665,52.916666 v 10e-7 10.583334 H 52.916666 V 52.916667 l -10.583333,1e-6 L 31.749999,63.500001 10.583332,63.5 V 31.75 l 21.166667,1e-6 10.583334,10.583333 H 52.916666 V 31.750001 h 31.749999 v 10.583333 -10e-7 L 95.249998,31.75 116.41667,42.333333 Z"
       id="path670"
       sodipodi:nodetypes="ccccccccccccccccccccc" /><path
       style="fill:#ffffff;fill-rule:evenodd;stroke-width:21.1667;stroke-linecap:round;stroke-linejoin:round;paint-order:stroke fill markers;stop-color:#000000"
       d="M 116.41667,52.916666 95.249998,63.5 84.666665,52.916666 v 10e-7 10.583334 H 52.916666 V 52.916667 l -10.583333,1e-6 L 31.749999,63.500001 10.583332,63.5 V 31.75 l 21.166667,1e-6 10.583334,10.583333 H 52.916666 V 31.750001 h 31.749999 v 10.583333 -10e-7 L 95.249998,31.75 116.41667,42.333333 Z"
       id="path672"
       sodipodi:nodetypes="ccccccccccccccccccccc" /><path
       style="fill:#ffffff;fill-rule:evenodd;stroke-width:21.1667;stroke-linecap:round;stroke-linejoin:round;paint-order:stroke fill markers;stop-color:#000000"
       d="M 21.166667,63.499999 31.75,84.666666 42.333333,105.83333 H 31.75 v 10.58334 H 74.083332 V 105.83333 H 63.499999 L 52.916667,84.666667 42.333334,63.5 H 52.916667 V 52.916667 l -31.75,-10e-7 z"
       id="path730"
       sodipodi:nodetypes="cccccccccccccc" /><path
       style="fill:#ffffff;fill-rule:evenodd;stroke-width:21.1667;stroke-linecap:round;stroke-linejoin:round;paint-order:stroke fill markers;stop-color:#000000"
       d="M 63.5,63.5 52.916667,84.666667 58.208334,95.250001 74.083334,63.5 Z"
       id="path732"
       sodipodi:nodetypes="ccccc" /><path
       style="fill:#ffffff;fill-rule:evenodd;stroke-width:21.1667;stroke-linecap:round;stroke-linejoin:round;paint-order:stroke fill markers;stop-color:#000000"
       d="m 52.916667,10.583333 0,21.166667 -31.75,0 L 31.75,10.583333 Z"
       id="path734"
       sodipodi:nodetypes="ccccc" /><path
       style="fill:#ffffff;fill-rule:evenodd;stroke-width:21.1667;stroke-linecap:round;stroke-linejoin:round;paint-order:stroke fill markers;stop-color:#000000"
       d="M 37.041666,95.249999 26.458333,105.83333 v 10.58334 H 74.083332 V 105.83333 L 63.499999,95.249999 Z"
       id="path736" /><rect
       style="fill:#ffffff;fill-rule:evenodd;stroke-width:21.1667;stroke-linecap:round;stroke-linejoin:round;paint-order:stroke fill markers;stop-color:#000000"
       id="rect760"
       width="21.166666"
       height="15.875"
       x="31.75"
       y="31.75"
       ry="3.8455809e-07" /></g></svg>
