<?xml version="1.0" encoding="UTF-8" standalone="no"?>
<!-- Created with Inkscape (http://www.inkscape.org/) -->

<svg
   width="480"
   height="480"
   viewBox="0 0 127 127"
   version="1.1"
   id="svg5"
   xml:space="preserve"
   inkscape:version="1.2.1 (9c6d41e410, 2022-07-14)"
   sodipodi:docname="ship.svg"
   inkscape:export-filename="20 Parsecs\images\ship.png"
   inkscape:export-xdpi="2.4000001"
   inkscape:export-ydpi="2.4000001"
   xmlns:inkscape="http://www.inkscape.org/namespaces/inkscape"
   xmlns:sodipodi="http://sodipodi.sourceforge.net/DTD/sodipodi-0.dtd"
   xmlns="http://www.w3.org/2000/svg"
   xmlns:svg="http://www.w3.org/2000/svg"><sodipodi:namedview
     id="namedview7"
     pagecolor="#353535"
     bordercolor="#000000"
     borderopacity="0.25"
     inkscape:showpageshadow="2"
     inkscape:pageopacity="0"
     inkscape:pagecheckerboard="0"
     inkscape:deskcolor="#d1d1d1"
     inkscape:document-units="mm"
     showgrid="true"
     inkscape:zoom="1.0544998"
     inkscape:cx="-88.193473"
     inkscape:cy="222.85448"
     inkscape:window-width="1920"
     inkscape:window-height="1017"
     inkscape:window-x="-8"
     inkscape:window-y="-8"
     inkscape:window-maximized="1"
     inkscape:current-layer="layer1"><inkscape:grid
       type="xygrid"
       id="grid419"
       spacingx="5.2916667"
       spacingy="5.2916667"
       empspacing="2"
       originx="0"
       originy="0" /></sodipodi:namedview><defs
     id="defs2" /><g
     inkscape:label="Réteg 1"
     inkscape:groupmode="layer"
     id="layer1"><path
       id="path424"
       style="fill:#ffffff;fill-rule:evenodd;stroke:none;stroke-width:0.264583;stroke-linecap:round;stroke-linejoin:round;paint-order:stroke fill markers;stop-color:#000000"
       d="M 52.916667 10.583333 L 42.333333 74.083333 L 21.166667 84.666667 L 21.166667 63.5 L 10.583333 63.5 L 10.583333 105.83333 L 21.166667 105.83333 L 21.166667 95.25 L 42.333333 95.25 L 52.916667 105.83333 L 42.333333 105.83333 L 42.333333 116.41667 L 84.666667 116.41667 L 84.666667 105.83333 L 74.083333 105.83333 L 84.666667 95.25 L 105.83333 95.25 L 105.83333 105.83333 L 116.41667 105.83333 L 116.41667 63.5 L 105.83333 63.5 L 105.83333 84.666667 L 84.666667 74.083333 L 74.083333 10.583333 L 52.916667 10.583333 z M 52.916667 52.916667 L 74.083333 52.916667 L 74.083333 74.083333 L 52.916667 74.083333 L 52.916667 52.916667 z " /></g></svg>
