<?xml version="1.0" encoding="UTF-8" standalone="no"?>
<!-- Created with Inkscape (http://www.inkscape.org/) -->

<svg
   width="480"
   height="480"
   viewBox="0 0 127 127"
   version="1.1"
   id="svg5"
   xml:space="preserve"
   inkscape:version="1.2.1 (9c6d41e410, 2022-07-14)"
   sodipodi:docname="ship-armor.svg"
   inkscape:export-filename="20 Parsecs\images\ship-attack.png"
   inkscape:export-xdpi="2.4000001"
   inkscape:export-ydpi="2.4000001"
   xmlns:inkscape="http://www.inkscape.org/namespaces/inkscape"
   xmlns:sodipodi="http://sodipodi.sourceforge.net/DTD/sodipodi-0.dtd"
   xmlns="http://www.w3.org/2000/svg"
   xmlns:svg="http://www.w3.org/2000/svg"><sodipodi:namedview
     id="namedview7"
     pagecolor="#353535"
     bordercolor="#000000"
     borderopacity="0.25"
     inkscape:showpageshadow="2"
     inkscape:pageopacity="0"
     inkscape:pagecheckerboard="0"
     inkscape:deskcolor="#d1d1d1"
     inkscape:document-units="mm"
     showgrid="true"
     inkscape:zoom="0.26362495"
     inkscape:cx="227.59606"
     inkscape:cy="906.59097"
     inkscape:window-width="1920"
     inkscape:window-height="1017"
     inkscape:window-x="-8"
     inkscape:window-y="-8"
     inkscape:window-maximized="1"
     inkscape:current-layer="layer1"><inkscape:grid
       type="xygrid"
       id="grid419"
       spacingx="5.2916667"
       spacingy="5.2916667"
       empspacing="2"
       originx="0"
       originy="0" /></sodipodi:namedview><defs
     id="defs2" /><g
     inkscape:label="Réteg 1"
     inkscape:groupmode="layer"
     id="layer1"><path
       id="rect798"
       style="fill:#ffffff;fill-rule:evenodd;stroke-width:20.6566;stroke-linecap:round;stroke-linejoin:round;paint-order:stroke fill markers;stop-color:#000000"
       d="M 10.583333 10.583333 L 10.583333 74.083333 L 52.916667 74.083333 L 63.5 42.333333 L 116.41667 42.333333 L 116.41667 10.583333 L 10.583333 10.583333 z M 21.166667 21.166667 L 31.75 21.166667 L 31.75 31.75 L 21.166667 31.75 L 21.166667 21.166667 z M 95.25 21.166667 L 105.83333 21.166667 L 105.83333 31.75 L 95.25 31.75 L 95.25 21.166667 z M 74.083333 52.916667 L 63.5 84.666667 L 10.583333 84.666667 L 10.583333 116.41667 L 116.41667 116.41667 L 116.41667 52.916667 L 74.083333 52.916667 z M 21.166667 95.25 L 31.75 95.25 L 31.75 105.83333 L 21.166667 105.83333 L 21.166667 95.25 z M 95.25 95.25 L 105.83333 95.25 L 105.83333 105.83333 L 95.25 105.83333 L 95.25 95.25 z " /></g></svg>
