<?xml version="1.0" encoding="UTF-8" standalone="no"?>
<!-- Created with Inkscape (http://www.inkscape.org/) -->

<svg
   width="480"
   height="480"
   viewBox="0 0 127 127"
   version="1.1"
   id="svg5"
   xml:space="preserve"
   inkscape:version="1.2.1 (9c6d41e410, 2022-07-14)"
   sodipodi:docname="skill-influence.svg"
   inkscape:export-filename="20 Parsecs\images\person.png"
   inkscape:export-xdpi="2.4000001"
   inkscape:export-ydpi="2.4000001"
   xmlns:inkscape="http://www.inkscape.org/namespaces/inkscape"
   xmlns:sodipodi="http://sodipodi.sourceforge.net/DTD/sodipodi-0.dtd"
   xmlns="http://www.w3.org/2000/svg"
   xmlns:svg="http://www.w3.org/2000/svg"><sodipodi:namedview
     id="namedview7"
     pagecolor="#353535"
     bordercolor="#000000"
     borderopacity="0.25"
     inkscape:showpageshadow="2"
     inkscape:pageopacity="0"
     inkscape:pagecheckerboard="0"
     inkscape:deskcolor="#d1d1d1"
     inkscape:document-units="mm"
     showgrid="true"
     inkscape:zoom="0.5272499"
     inkscape:cx="-41.725944"
     inkscape:cy="100.52159"
     inkscape:window-width="1920"
     inkscape:window-height="1017"
     inkscape:window-x="-8"
     inkscape:window-y="-8"
     inkscape:window-maximized="1"
     inkscape:current-layer="layer1"><inkscape:grid
       type="xygrid"
       id="grid419"
       spacingx="5.2916667"
       spacingy="5.2916667"
       empspacing="2"
       originx="0"
       originy="0" /></sodipodi:namedview><defs
     id="defs2" /><g
     inkscape:label="Réteg 1"
     inkscape:groupmode="layer"
     id="layer1"><path
       id="path1500"
       style="fill:#ffffff;fill-rule:evenodd;stroke:none;stroke-width:0.264583;stroke-linecap:round;stroke-linejoin:round;paint-order:stroke fill markers;stop-color:#000000"
       d="M 63.5 10.583333 A 42.333332 42.333332 0 0 0 21.166667 52.916667 A 42.333332 42.333332 0 0 0 27.374556 74.936511 A 52.916664 42.333332 0 0 1 36.444287 69.483097 A 31.75 31.75 0 0 1 31.75 52.916667 A 31.75 31.75 0 0 1 63.5 21.166667 A 31.75 31.75 0 0 1 95.25 52.916667 A 31.75 31.75 0 0 1 90.570699 69.46036 A 52.916664 42.333332 0 0 1 99.658 74.928243 A 42.333332 42.333332 0 0 0 105.83333 52.916667 A 42.333332 42.333332 0 0 0 63.5 10.583333 z " /><path
       style="fill:#ffffff;fill-rule:evenodd;stroke:none;stroke-width:0.305514;stroke-linecap:round;stroke-linejoin:round;paint-order:stroke fill markers;stop-color:#000000"
       id="path602"
       sodipodi:type="arc"
       sodipodi:cx="63.500004"
       sodipodi:cy="-105.83334"
       sodipodi:rx="42.333336"
       sodipodi:ry="31.75"
       sodipodi:start="0"
       sodipodi:end="3.1415927"
       sodipodi:open="true"
       sodipodi:arc-type="arc"
       d="m 105.83334,-105.83334 a 42.333336,31.75 0 0 1 -21.166669,27.496303 42.333336,31.75 0 0 1 -42.333336,0 42.333336,31.75 0 0 1 -21.166667,-27.496303"
       transform="scale(1,-1)" /><circle
       style="fill:#ffffff;fill-rule:evenodd;stroke:none;stroke-width:0.529165;stroke-linecap:round;stroke-linejoin:round;paint-order:stroke fill markers;stop-color:#000000"
       id="path604"
       cx="63.500004"
       cy="52.916679"
       r="21.166664" /></g></svg>
