<?xml version="1.0" encoding="UTF-8" standalone="no"?>
<!-- Created with Inkscape (http://www.inkscape.org/) -->

<svg
   width="480"
   height="480"
   viewBox="0 0 127 127"
   version="1.1"
   id="svg5"
   xml:space="preserve"
   inkscape:version="1.2.1 (9c6d41e410, 2022-07-14)"
   sodipodi:docname="to.svg"
   inkscape:export-filename="20 Parsecs\images\to.png"
   inkscape:export-xdpi="2.4000001"
   inkscape:export-ydpi="2.4000001"
   xmlns:inkscape="http://www.inkscape.org/namespaces/inkscape"
   xmlns:sodipodi="http://sodipodi.sourceforge.net/DTD/sodipodi-0.dtd"
   xmlns="http://www.w3.org/2000/svg"
   xmlns:svg="http://www.w3.org/2000/svg"><sodipodi:namedview
     id="namedview7"
     pagecolor="#353535"
     bordercolor="#000000"
     borderopacity="0.25"
     inkscape:showpageshadow="2"
     inkscape:pageopacity="0"
     inkscape:pagecheckerboard="0"
     inkscape:deskcolor="#d1d1d1"
     inkscape:document-units="mm"
     showgrid="true"
     inkscape:zoom="0.52724989"
     inkscape:cx="-72.072088"
     inkscape:cy="396.39648"
     inkscape:window-width="1920"
     inkscape:window-height="1017"
     inkscape:window-x="-8"
     inkscape:window-y="-8"
     inkscape:window-maximized="1"
     inkscape:current-layer="layer1"><inkscape:grid
       type="xygrid"
       id="grid419"
       spacingx="5.2916667"
       spacingy="5.2916667"
       empspacing="2"
       originx="0"
       originy="0" /></sodipodi:namedview><defs
     id="defs2" /><g
     inkscape:label="Réteg 1"
     inkscape:groupmode="layer"
     id="layer1"><path
       id="path5468"
       style="opacity:1;fill:#ffffff;fill-rule:evenodd;stroke:none;stroke-width:14.111;stroke-linecap:round;stroke-linejoin:round;stroke-dasharray:none;paint-order:markers stroke fill;stop-color:#000000"
       d="m 63.5,10.583333 c -17.53504,-10e-7 -31.75,14.214958 -31.75,31.75 0.0078,8.518134 6.478927,19.657922 9.519832,22.639962 C 44.310737,67.955335 63.5,100.54167 63.5,100.54167 c 0,0 19.189263,-32.586335 22.230168,-35.568375 3.040905,-2.98204 9.512046,-14.121828 9.519832,-22.639962 0,-17.535042 -14.21496,-31.750001 -31.75,-31.75 z m 0,10.583334 c 11.690027,-1e-6 21.166667,9.476639 21.166667,21.166666 C 84.666668,54.023361 75.190028,63.500001 63.5,63.5 c -11.690028,10e-7 -21.166668,-9.476639 -21.166667,-21.166667 0,-11.690027 9.47664,-21.166667 21.166667,-21.166666 z"
       sodipodi:nodetypes="sczczcssssss" /><path
       id="path5472"
       style="opacity:1;fill:#ffffff;fill-rule:evenodd;stroke:none;stroke-width:10.5833;stroke-linecap:round;stroke-linejoin:round;stroke-dasharray:none;paint-order:markers stroke fill;stop-color:#000000"
       d="m -53.803951,86.546652 -5.770191,9.231478 a 21.166666,5.2916665 0 0 1 11.949142,4.76354 21.166666,5.2916665 0 0 1 -21.166667,5.29166 21.166666,5.2916665 0 0 1 -21.166667,-5.29166 21.166666,5.2916665 0 0 1 11.950692,-4.760956 l -5.76864,-9.229928 a 31.75,15.875 0 0 0 -16.765388,13.990884 31.75,15.875 0 0 0 31.750003,15.875 31.75,15.875 0 0 0 31.75,-15.875 31.75,15.875 0 0 0 -16.762284,-13.995018 z" /></g></svg>
